<svg width="140" height="140" viewBox="0 0 140 140" fill="none" xmlns="http://www.w3.org/2000/svg">
<path d="M70 112.4C86.5685 112.4 100 98.5282 100 81.416C100 64.3038 86.5685 50.4316 70 50.4316C53.4315 50.4316 40 64.3038 40 81.416C40 98.5282 53.4315 112.4 70 112.4Z" fill="#D3F1E0" stroke="#D3F1E0" stroke-width="6.6" stroke-linecap="round" stroke-linejoin="round"/>
<path d="M80 73.1533L68.9803 88.4918C68.7353 88.832 68.4231 89.1132 68.065 89.3167C67.7069 89.5201 67.3111 89.6409 66.9043 89.6709C66.4976 89.7009 66.0895 89.6395 65.7075 89.4907C65.3255 89.3419 64.9785 89.1093 64.69 88.8086L59 82.8695" stroke="#2BAD62" stroke-width="4" stroke-linecap="round" stroke-linejoin="round"/>
<ellipse rx="2.99912" ry="3" transform="matrix(0.993526 0.113608 -0.114207 0.993457 33.3675 19.9324)" fill="#FFC736"/>
<ellipse rx="2.56486" ry="2.56657" transform="matrix(0.993526 0.113608 -0.114207 0.993457 116.587 45.7123)" fill="#3ECD80"/>
<ellipse rx="2.50483" ry="2.50557" transform="matrix(0.993526 0.113608 -0.114207 0.993457 23.7122 58.1566)" fill="#D3F1E0"/>
<rect width="6.84709" height="6.84178" rx="1" transform="matrix(-0.804193 -0.594368 -0.596415 0.802676 38.4434 112.943)" fill="#18B159"/>
<rect width="8.15697" height="8.15866" rx="1" transform="matrix(0.804193 -0.594368 0.596415 0.802676 83.4277 18.8486)" fill="#D3F1E0"/>
<path d="M115.996 115.049C116.245 114.322 115.611 113.598 114.854 113.746L107.666 115.157C106.91 115.305 106.599 116.214 107.106 116.794L111.925 122.297C112.432 122.876 113.377 122.691 113.627 121.963L115.996 115.049Z" fill="#FFC736"/>
</svg>
