<?xml version="1.0" encoding="utf-8"?>
<!-- Generator: Adobe Illustrator 24.0.2, SVG Export Plug-In . SVG Version: 6.00 Build 0)  -->
<svg version="1.1" id="Layer_1" xmlns="http://www.w3.org/2000/svg" xmlns:xlink="http://www.w3.org/1999/xlink" x="0px" y="0px"
	 width="68.4px" height="75px" viewBox="0 0 70.4 78.7" style="enable-background:new 0 0 70.4 78.7;" xml:space="preserve">
<style type="text/css">
	.st0{fill:#FFC400;stroke:#000000;stroke-width:3.4283;stroke-linejoin:round;stroke-miterlimit:10;}
	.st1{fill:none;stroke:#000000;stroke-width:3.4283;stroke-linecap:round;stroke-miterlimit:10;}
	.st2{fill:#FF5252;stroke:#000000;stroke-width:3.4283;stroke-linecap:round;stroke-miterlimit:10;}
	.st3{fill:#FFC400;stroke:#000000;stroke-width:3.4283;stroke-linecap:round;stroke-miterlimit:10;}
	.st4{fill:#FFFEFD;stroke:#000000;stroke-width:3.4283;stroke-linecap:round;stroke-miterlimit:10;}
</style>
<g>
	<g>
		<circle cx="48.1" cy="70.1" r="8.6"/>
		<path class="st0" d="M10.4,41c0-16.1,13-29.1,29.1-29.1c16.1,0,29.1,13.1,29.1,29.1c0,16.1-13,29.1-29.1,29.1c0,0-10.3,0-10.3,0
			C12.1,70.1,3.5,56.3,3.5,53c4.1,0,6.9-3.4,6.9-6.8V41z"/>
		<circle cx="24.1" cy="70.1" r="8.6"/>
	</g>
	<g>
		<path class="st1" d="M27.8,35.9c0.7-2,2.6-3.4,4.8-3.4c2.3,0,4.2,1.4,4.8,3.4"/>
		<path class="st1" d="M48.4,35.9c0.7-2,2.6-3.4,4.8-3.4c2.3,0,4.2,1.4,4.8,3.4"/>
	</g>
	<path class="st2" d="M36.1,42.7v10.2c0,3.8,3.1,6.9,6.9,6.9s6.9-3.1,6.9-6.9V42.7"/>
	<line class="st1" x1="31" y1="42.7" x2="55" y2="42.7"/>
	<line class="st1" x1="43" y1="42.7" x2="43" y2="51.2"/>
	<path class="st3" d="M24.4,24.6c0-5.8-4.7-10.5-10.5-10.5S3.4,18.8,3.4,24.6c0,4.2,2.5,7.9,6.1,9.5v9.3h8.6v-9.3
		C21.8,32.6,24.4,28.9,24.4,24.6z"/>
	<path class="st4" d="M18.1,42.7H9.5v5.7c0,1.9,1.6,3.5,3.5,3.5h1.6c1.9,0,3.5-1.6,3.5-3.5V42.7z"/>
	<path class="st1" d="M13.9,19.3c-2.5,1.1-4.3,3.7-4.3,6.8"/>
	<line class="st1" x1="13.8" y1="9.1" x2="13.8" y2="1.7"/>
	<line class="st1" x1="20.8" y1="9.2" x2="26" y2="3.9"/>
	<line class="st1" x1="1.7" y1="3.9" x2="6.9" y2="9.2"/>
</g>
</svg>
